<?xml version="1.0" standalone="no"?>
<svg xmlns="http://www.w3.org/2000/svg" height="190" width="1134"><g class="vx-group vx-axis vx-axis-left" transform="translate(60, 0)"><g class="vx-group vx-axis-tick" transform="translate(0, 0)"><line class="vx-line" x1="0" y1="171.7" x2="-8" y2="171.7" fill="transparent" stroke="#222" stroke-linecap="square"/><svg x="-0.25em" y="0.25em" font-size="10" style="overflow: visible;"><text x="-8" y="171.7" fill="#000" font-size="10" text-anchor="end"><tspan x="-8" dy="0em">10</tspan></text></svg></g><g class="vx-group vx-axis-tick" transform="translate(0, 0)"><line class="vx-line" x1="0" y1="153.4" x2="-8" y2="153.4" fill="transparent" stroke="#222" stroke-linecap="square"/><svg x="-0.25em" y="0.25em" font-size="10" style="overflow: visible;"><text x="-8" y="153.4" fill="#000" font-size="10" text-anchor="end"><tspan x="-8" dy="0em">20</tspan></text></svg></g><g class="vx-group vx-axis-tick" transform="translate(0, 0)"><line class="vx-line" x1="0" y1="135.1" x2="-8" y2="135.1" fill="transparent" stroke="#222" stroke-linecap="square"/><svg x="-0.25em" y="0.25em" font-size="10" style="overflow: visible;"><text x="-8" y="135.1" fill="#000" font-size="10" text-anchor="end"><tspan x="-8" dy="0em">30</tspan></text></svg></g><g class="vx-group vx-axis-tick" transform="translate(0, 0)"><line class="vx-line" x1="0" y1="116.8" x2="-8" y2="116.8" fill="transparent" stroke="#222" stroke-linecap="square"/><svg x="-0.25em" y="0.25em" font-size="10" style="overflow: visible;"><text x="-8" y="116.8" fill="#000" font-size="10" text-anchor="end"><tspan x="-8" dy="0em">40</tspan></text></svg></g><g class="vx-group vx-axis-tick" transform="translate(0, 0)"><line class="vx-line" x1="0" y1="98.5" x2="-8" y2="98.5" fill="transparent" stroke="#222" stroke-linecap="square"/><svg x="-0.25em" y="0.25em" font-size="10" style="overflow: visible;"><text x="-8" y="98.5" fill="#000" font-size="10" text-anchor="end"><tspan x="-8" dy="0em">50</tspan></text></svg></g><g class="vx-group vx-axis-tick" transform="translate(0, 0)"><line class="vx-line" x1="0" y1="80.2" x2="-8" y2="80.2" fill="transparent" stroke="#222" stroke-linecap="square"/><svg x="-0.25em" y="0.25em" font-size="10" style="overflow: visible;"><text x="-8" y="80.2" fill="#000" font-size="10" text-anchor="end"><tspan x="-8" dy="0em">60</tspan></text></svg></g><g class="vx-group vx-axis-tick" transform="translate(0, 0)"><line class="vx-line" x1="0" y1="61.900000000000006" x2="-8" y2="61.900000000000006" fill="transparent" stroke="#222" stroke-linecap="square"/><svg x="-0.25em" y="0.25em" font-size="10" style="overflow: visible;"><text x="-8" y="61.900000000000006" fill="#000" font-size="10" text-anchor="end"><tspan x="-8" dy="0em">70</tspan></text></svg></g><g class="vx-group vx-axis-tick" transform="translate(0, 0)"><line class="vx-line" x1="0" y1="43.599999999999994" x2="-8" y2="43.599999999999994" fill="transparent" stroke="#222" stroke-linecap="square"/><svg x="-0.25em" y="0.25em" font-size="10" style="overflow: visible;"><text x="-8" y="43.599999999999994" fill="#000" font-size="10" text-anchor="end"><tspan x="-8" dy="0em">80</tspan></text></svg></g><g class="vx-group vx-axis-tick" transform="translate(0, 0)"><line class="vx-line" x1="0" y1="25.299999999999997" x2="-8" y2="25.299999999999997" fill="transparent" stroke="#222" stroke-linecap="square"/><svg x="-0.25em" y="0.25em" font-size="10" style="overflow: visible;"><text x="-8" y="25.299999999999997" fill="#000" font-size="10" text-anchor="end"><tspan x="-8" dy="0em">90</tspan></text></svg></g><g class="vx-group vx-axis-tick" transform="translate(0, 0)"><line class="vx-line" x1="0" y1="7" x2="-8" y2="7" fill="transparent" stroke="#222" stroke-linecap="square"/><svg x="-0.25em" y="0.25em" font-size="10" style="overflow: visible;"><text x="-8" y="7" fill="#000" font-size="10" text-anchor="end"><tspan x="-8" dy="0em">100</tspan></text></svg></g><line class="vx-line vx-axis-line" x1="0" y1="190.5" x2="0" y2="7.5" fill="transparent" stroke="#333" stroke-width="1"/></g><g transform="translate(60,0)"><g><path d="M21.23728813559322,176.84990296382236L23.25988700564972,176.86437928488556L25.282485875706215,176.835233625145L27.305084745762713,176.7433572407974L29.32768361581921,176.7559033857188L31.350282485875706,176.75464877122667L33.37288135593221,176.77848644657738L35.3954802259887,176.70330608585593L37.4180790960452,176.72791583166332L39.440677966101696,176.9381120135007L41.463276836158194,176.81998523362515L43.485875706214685,176.818730619133L45.50847457627118,176.84208575044823L47.53107344632768,176.9174591287839L49.55367231638419,177.15477428541294L51.57627118644068,177.31179411454488L53.59887005649718,177.45260046408606L55.621468926553675,177.64195074359247L57.644067796610166,177.74627676405444L59.666666666666664,177.8586130155047L61.68926553672317,178.00154255880182L63.71186440677966,178.2029564391942L65.73446327683615,178.37329448370429L67.75706214689266,178.54382554582853L69.77966101694915,178.82727191224552L71.80225988700565,179.06642073620927L73.82485875706215,179.32573990085433L75.84745762711864,179.72576890623353L77.87005649717513,180.06171606370637L79.89265536723164,180.2910209893471L81.91525423728814,180.52727454909817L83.93785310734462,180.83195285307454L85.96045197740114,181.14618552895266L87.98305084745762,181.38562387933763L90.00564971751413,181.67080740428224L92.02824858757063,181.93128467461239L94.05084745762711,182.29184157789263L96.07344632768363,182.6919670920789L98.09604519774011,182.98371321590548L100.11864406779661,183.37138909397743L102.1412429378531,183.5646962345744L104.1638418079096,183.91125936082693L106.1864406779661,184.27355342263473L108.2090395480226,184.5441641177091L110.2316384180791,184.87644394051262L112.25423728813558,185.16539130893366L114.2768361581921,185.50519881869002L116.2994350282486,185.6714834933024L118.32203389830508,185.8941293112541L120.34463276836159,186.14128836620608L122.36723163841808,186.31162641071617L124.38983050847457,186.58243012340472L126.41242937853107,186.78297542453328L128.43502824858757,187.05493724290687L130.45762711864407,187.3352953274971L132.48022598870057,187.58679727876807L134.50282485875707,187.8353074570193L136.52542372881356,188.04926748233308L138.54802259887003,188.28571405969834L140.57062146892656,188.5086494040713L142.59322033898306,188.5953143128362L144.61581920903953,188.69327075203037L146.63841807909606,188.78176932812994L148.66101694915255,188.88870108638326L150.68361581920902,188.9862714903491L152.70621468926555,189.04398375698767L154.72881355932205,189.15873272861512L156.75141242937852,189.23651882712795L158.77401129943502,189.29944256934922L160.79661016949154,189.3577338888303L162.819209039548,189.42548307140595L164.8418079096045,189.48946841050522L166.86440677966104,189.52797542453328L168.8870056497175,189.56059540132898L170.909604519774,189.5709218436874L172.9322033898305,189.54997943254932L174.954802259887,189.53820535808458L176.9774011299435,189.51832454382446L179,189.48859983124143L181.0225988700565,189.46128783883557L183.045197740113,189.45839257462293L185.0677966101695,189.44796962345742L187.090395480226,189.44140702457545L189.1129943502825,189.42808880919736L191.135593220339,189.40955911823647L193.15819209039546,189.37240322750765L195.180790960452,189.3386251450269L197.20338983050848,189.3122782406919L199.22598870056495,189.28120240480962L201.24858757062148,189.25929490560068L203.27118644067798,189.228894631368L205.29378531073445,189.2073731673874L207.31638418079095,189.17127887353652L209.33898305084747,189.13788682628416L211.36158192090394,189.1002483915199L213.38418079096044,189.05730197236576L215.40677966101697,188.9823146292585L217.42937853107344,188.8761549414619L219.45197740112994,188.6221437612066L221.47457627118644,188.54146239848117L223.49717514124293,188.4449535913933L225.51977401129943,188.29922529269064L227.54237288135593,188.2024269591815L229.56497175141243,188.1478029743698L231.58757062146893,188.00612804556482L233.61016949152543,187.80307351545196L235.63276836158192,187.59326336884294L237.65536723163842,187.48005853812887L239.67796610169492,187.33597088914672L241.7005649717514,187.18454857082585L243.72316384180792,186.91972840417677L245.74576271186442,186.66320799493724L247.76836158192089,186.5331141229828L249.7909604519774,186.3346920156102L251.8135593220339,186.17332929015924L253.83615819209038,185.85735945575362L255.85875706214688,184.8066680729881L257.8813559322034,184.55265689273284L259.9039548022599,184.2802125303238L261.9265536723164,184.11537548781774L263.9491525423729,183.44068241746652L265.9717514124294,183.23839995781037L267.99435028248587,182.92001740322752L270.0169491525424,182.67922792954332L272.03954802259886,182.44075466722919L274.0621468926554,181.99063759097143L276.08474576271186,181.6179205779981L278.10734463276833,180.99254350806876L280.12994350282486,180.45450690855395L282.1525423728814,179.75308089863938L284.17514124293785,179.38750553739055L286.1977401129944,177.49815262103152L288.22033898305085,176.33058907288262L290.2429378531073,175.82034700980907L292.26553672316385,175.28182786625882L294.2881355932203,175.00812888935766L296.31073446327684,174.4473162113701L298.33333333333337,174.20372798228036L300.3559322033898,173.86614017508703L302.3785310734463,173.59475740955594L304.40112994350284,173.3049414618711L306.4237288135593,172.86293112540872L308.44632768361583,172.31408553950004L310.46892655367236,172.01983018668918L312.4915254237288,171.64527950638117L314.5141242937853,171.34320694019618L316.5367231638418,171.20799810146607L318.5593220338983,170.8781309988398L320.5819209039548,170.5623541820483L322.60451977401135,170.32725872798227L324.62711864406776,170.10248971627468L326.6497175141243,169.80389146714484L328.67231638418076,169.7991625355975L330.6949152542373,169.82965931863728L332.7175141242938,170.40842263474318L334.7401129943503,170.5057035122877L336.76271186440675,170.48003216960237L338.7853107344633,170.41643286573145L340.80790960451975,170.54778135217805L342.8305084745763,170.60105421369053L344.8531073446328,170.61678514924586L346.8757062146893,170.66861037865203L348.89830508474574,170.8913527054108L350.92090395480227,170.93738740639174L352.94350282485874,170.90177565657632L354.96610169491527,170.9612250817424L356.9887005649718,171.11293692648456L359.01129943502826,171.00947948528636L361.03389830508473,170.95012656892735L363.0564971751412,171.5233888830292L365.07909604519773,171.42948581373273L367.10169491525426,171.19834722075728L369.1242937853107,170.99828446366416L371.14689265536725,170.7676284147242L373.1694915254237,170.90023151566288L375.1920903954802,170.6480540027423L377.2146892655367,170.47626832612593L379.23728813559325,170.38091762472314L381.2598870056497,169.89345164012235L383.28248587570624,169.75862883662063L385.3050847457627,169.9033920472524L387.3276836158192,169.61936662799286L389.3502824858757,169.69937242906863L391.3728813559322,169.64783672608374L393.3954802259887,169.53607952747603L395.41807909604523,169.10217593080898L397.44067796610165,168.80261259360827L399.4632768361582,168.65669127729143L401.4858757062147,168.56037548781774L403.50847457627117,168.65109376648033L405.5310734463277,168.56288471680202L407.5536723163842,168.08526263052423L409.57627118644064,167.9015098618289L411.59887005649716,167.2467941145449L413.6214689265537,166.71425851703407L415.64406779661016,166.68964877122667L417.6666666666667,166.5028077207046L419.6892655367232,166.15257725978273L421.7118644067796,166.46343212741272L423.73446327683615,166.6337701719228L425.7570621468926,166.63203301339522L427.77966101694915,167.14198555004745L429.8022598870057,167.29031958654153L431.82485875706215,167.43411770910242L433.8474576271186,169.3437374749499L435.87005649717514,171.0284917202827L437.8926553672316,170.05664803290793L439.91525423728814,169.80804134584957L441.93785310734467,169.70805822170658L443.96045197740114,169.40598565552156L445.9830508474576,169.3293576626938L448.00564971751413,168.75792901592658L450.0282485875706,168.2371674928805L452.0508474576271,167.85441356397004L454.07344632768365,167.47079105579581L456.0960451977401,166.80565235734625L458.1186440677966,166.5160294272756L460.14124293785306,165.99102151671764L462.1638418079096,163.04885402383715L464.1864406779661,161.74984548043454L466.2090395480226,160.1802262419576L468.2316384180791,159.49346957072038L470.2542372881356,158.795517877861L472.27683615819205,159.1203665225187L474.2994350282486,158.67661902752874L476.3220338983051,157.9463368842949L478.3446327683616,157.66318004429914L480.3672316384181,156.11450321696026L482.3898305084746,155.89282248707943L484.41242937853104,155.61960605421368L486.43502824858757,154.46951060014766L488.45762711864404,154.23026526737684L490.48022598870057,153.79327338888302L492.5028248587571,152.88840681362726L494.5254237288135,152.74518774390887L496.54802259887003,152.5709893471153L498.57062146892656,151.87660848011814L500.59322033898303,151.74294378230144L502.61581920903956,151.38171131737158L504.6384180790961,150.25014555426645L506.6610169491525,149.76094241113805L508.683615819209,148.3558706887459L510.70621468926555,147.71707889463138L512.728813559322,147.492599409345L514.7514124293785,147.51894631367998L516.7740112994351,146.43785465668176L518.7966101694915,145.96766374854974L520.819209039548,145.8507915831663L522.8418079096045,145.63818268115176L524.864406779661,145.59871057905286L526.8870056497175,144.957409555954L528.909604519774,145.0728340892311L530.9322033898305,144.50072988081425L532.9548022598871,143.6442142179095L534.9774011299435,143.62481594768485L537,142.85853601940724L539.0225988700565,142.65104208416832L541.045197740113,142.45773494357138L543.0677966101695,141.63470783672608L545.090395480226,140.4339452589389L547.1129943502825,140.9260436662799L549.135593220339,140.10301655943468L551.1581920903955,139.4525471996625L553.180790960452,139.66901645396055L555.2033898305084,139.4238840839574L557.2259887005649,139.7074269591815L559.2485875706215,139.39859877650036L561.271186440678,138.9348739584432L563.2937853107345,138.7090433498576L565.316384180791,138.259119291214L567.3389830508474,137.67205621769853L569.361581920904,136.41705569032806L571.3841807909605,135.80547937981225L573.406779661017,135.3783313996414L575.4293785310734,134.73230144499524L577.4519774011299,134.2930898639384L579.4745762711864,133.23641493513344L581.4971751412429,132.67898006539397L583.5197740112994,132.44098934711528L585.542372881356,132.2802056745069L587.5649717514125,131.75664539605526L589.5875706214689,129.517737580424L591.6101694915254,127.77459550680308L593.632768361582,127.03533804451007L595.6553672316385,126.35659160426114L597.677966101695,126.00732623141019L599.7005649717514,125.77966195548993L601.7231638418078,125.63953116759836L603.7457627118644,125.00855658685792L605.7683615819209,124.03864307562493L607.7909604519774,123.6231726611117L609.8135593220339,122.46139964138806L611.8361581920904,121.98812045142918L613.8587570621469,122.41275920261575L615.8813559322034,122.5681383820272L617.9039548022599,122.94220651829974L619.9265536723165,123.32409186794641L621.949152542373,123.55358981120135L623.9717514124293,122.77466722919524L625.9943502824858,122.57904387722814L628.0169491525423,124.50738635165068L630.0395480225989,133.74858717434873L632.0621468926554,133.609421474528L634.0847457627119,128.93270119185738L636.1073446327683,133.73633055584853L638.1299435028249,132.4766976057378L640.1525423728814,134.33468515979328L642.1751412429379,132.92922740217278L644.1977401129944,131.7983372007172L646.2203389830509,134.71087648982174L648.2429378531073,132.04327655310624L650.2655367231638,131.1371553633583L652.2881355932203,129.4636926484548L654.3107344632768,130.38351808880918L656.3333333333334,128.64211317371584L658.3559322033898,128.18977639489506L660.3785310734463,125.377702773969L662.4011299435028,122.98457388461132L664.4237288135594,122.18634954118765L666.4463276836159,121.04098301866892L668.4689265536723,119.66119660373379L670.4915254237288,118.79995200928174L672.5141242937852,116.359533804451L674.5367231638418,113.82251028372534L676.5593220338983,111.8662767640544L678.5819209039548,110.04959497943254L680.6045197740112,108.01615441409133L682.6271186440678,106.11821221390149L684.6497175141243,104.13736894842316L686.6723163841808,103.14371427064657L688.6949152542373,101.2910347009809L690.7175141242939,99.74264740006329L692.7401129943503,98.1717735470942L694.7627118644068,97.42045248391518L696.7853107344632,95.62220388144709L698.8079096045198,94.0394594452062L700.8305084745763,91.77719649825967L702.8531073446327,90.19020567450691L704.8757062146892,88.77712372112646L706.8983050847457,87.18791319481068L708.9209039548023,86.23083535492036L710.9435028248588,85.15698185845375L712.9661016949153,83.91134268537073L714.9887005649717,83.46518247020357L717.0112994350283,82.59023362514503L719.0338983050848,82.09910030587491L721.0564971751412,81.52554846535175L723.0790960451977,80.8510484126147L725.1016949152543,80.97950163484865L727.1242937853107,80.60591604261155L729.1468926553672,80.3994837042506L731.1694915254237,79.57230671870056L733.1920903954802,78.4884163062968L735.2146892655368,79.17121611644343L737.2372881355932,78.99894789579159L739.2598870056497,79.23269222655838L741.2824858757062,78.58357399008544L743.3050847457628,78.76838835565869L745.3276836158192,78.88091762472314L747.3502824858757,79.01670551629576L749.3728813559321,80.00939510600148L751.3954802259886,79.37224396160742L753.4180790960452,79.80026052104208L755.4406779661017,80.44271964982597L757.4632768361582,81.21507963295011L759.4858757062148,81.4726616390676L761.5084745762712,82.43890781563125L763.5310734463277,82.7375060647611L765.5536723163842,83.14091287838836L767.5762711864407,84.31590760468306L769.5988700564972,85.33368948423163L771.6214689265536,86.02025313785465L773.6440677966101,87.83992669549625L775.6666666666666,88.4961865836937L777.6892655367232,90.08559012762368L779.7118644067797,91.25749657209155L781.7344632768362,92.31542611538866L783.7570621468926,93.51184579685686L785.7796610169491,94.40995675561649L787.8022598870057,95.12113015504696L789.8248587570622,95.79804292796119L791.8474576271187,96.04549150933445L793.8700564971753,96.95566606898008L795.8926553672316,97.69974897162747L797.9152542372881,98.37463505959288L799.9378531073446,99.48815367577261L801.9604519774011,99.9318046619555L803.9830508474577,101.10535175614386L806.0056497175141,101.83544088176352L808.0282485875706,103.74390254192596L810.0508474576271,106.29115599620292L812.0734463276837,107.00213637801922L814.0960451977402,107.72662799282776L816.1186440677967,109.21170551629577L818.141242937853,110.52827866258833L820.1638418079095,111.25325282143234L822.1864406779661,112.01499683577681L824.2090395480226,112.86215114439406L826.2316384180791,113.3031963927856L828.2542372881356,114.18258464297014L830.276836158192,115.72547094188378L832.2994350282486,117.1264892943782L834.3220338983051,117.36013711633792L836.3446327683616,120.10282090496783L838.3672316384182,121.27212161164435L840.3898305084746,122.06059856555216L842.412429378531,123.56102098934713L844.4350282485875,124.42554688324016L846.457627118644,125.18487817740744L848.4802259887006,126.6692801392258L850.5028248587571,126.3380619133003L852.5254237288135,127.69391414407762L854.54802259887,128.66768800759417L856.5706214689266,130.15952114755828L858.5932203389831,131.65917150089655L860.6158192090396,132.27219544351863L862.638418079096,132.23378493829765L864.6610169491526,132.72047885244174L866.683615819209,133.56531694968888L868.7062146892655,134.90080582217067L870.728813559322,136.45546619554898L872.7514124293785,138.00742432232886L874.774011299435,140.0637374749499L876.7966101694915,140.90992669549627L878.819209039548,142.566114333931L880.8418079096045,143.4561185528953L882.8644067796611,144.16584432021938L884.8870056497176,146.08598354603947L886.909604519774,146.43466986604787L888.9322033898305,148.2058960025314L890.954802259887,149.12552842527157L892.9774011299435,150.02084062862565L895,151.9207130049573L897.0225988700564,154.16656945469887L899.0451977401129,155.07076046830502L901.0677966101695,155.86811623246493L903.090395480226,157.83062282459656L905.1129943502825,159.93972629469465L907.135593220339,160.1796471891151L909.1581920903955,160.3233488028689L911.180790960452,161.32385560594875L913.2033898305085,161.78092131631684L915.225988700565,162.52413563970046L917.2485875706215,165.0603870899694L919.271186440678,165.4642764476321L921.2937853107344,166.00009334458392L923.3163841807909,166.65953802341525L925.3389830508474,166.97898217487605L927.361581920904,168.72337886298914L929.3841807909605,169.48000791055796L931.4067796610169,169.90329553844532L933.4293785310734,170.513713743276L935.45197740113,171.1803000738319L937.4745762711865,171.5624749498998L939.497175141243,172.88242590444045L941.5197740112994,173.2668204830714L943.5423728813558,173.8059186794642L945.5649717514124,174.45310673979537L947.5875706214689,174.4029221601097L949.6101694915254,174.47646187111064L951.632768361582,174.37947051998734L953.6553672316385,174.4609239531695L955.6779661016949,174.49557061491404L957.7005649717514,174.76183841366944L959.723163841808,174.78586910663432L961.7457627118645,174.98535281088493L963.768361581921,175.05493566079525L965.7909604519773,175.1907235523679L967.8135593220338,175.233669971522L969.8361581920904,175.2312572513448L971.8587570621469,175.17624723130473L973.8813559322034,175.25036599514817L975.9039548022599,175.24544404598672L977.9265536723163,175.25856924375066L979.9491525423729,175.37283567134267L981.9717514124294,175.65213215905496L983.9943502824859,175.91386404387723L986.0169491525425,176.19402911085328L988.039548022599,176.38164223183207L990.0621468926553,176.6009102415357L992.0847457627118,176.76265900221495L994.1073446327683,177.11636378019196L996.1299435028249,177.52276236683895L998.1525423728814,177.81605263157894L1000.1751412429378,178.19118236472949L1002.1977401129943,179.7760499947263L1004.2203389830509,180.12763157894736L1006.2429378531074,180.46869370319587L1008.2655367231639,180.98549836515136L1010.2881355932204,181.3236652251872L1012.3107344632768,181.84259308089867L1014.3333333333333,182.24493829764793L1016.3559322033898,182.50001107478116L1018.3785310734463,182.89859244805402L1020.4011299435028,183.14526895897058L1022.4237288135594,183.5553348802869L1024.446327683616,183.90141546250396L1026.4689265536722,184.31804398270225L1028.4915254237287,184.77897004535384L1030.5141242937852,185.14589652990193L1032.5367231638418,185.761140175087L1034.5593220338983,186.05771173926803L1036.5819209039548,186.22592659002214L1038.6045197740114,186.38072671659106L1040.6271186440679,186.49470361776184L1042.6497175141244,186.7129100305875L1044.672316384181,186.84966301023098L1046.6949152542372,187.0761691804662L1048.7175141242938,187.23762841472418L1048.7175141242938,190L1046.6949152542372,190L1044.672316384181,190L1042.6497175141244,190L1040.6271186440679,190L1038.6045197740114,190L1036.5819209039548,190L1034.5593220338983,190L1032.5367231638418,190L1030.5141242937852,190L1028.4915254237287,190L1026.4689265536722,190L1024.446327683616,190L1022.4237288135594,190L1020.4011299435028,190L1018.3785310734463,190L1016.3559322033898,190L1014.3333333333333,190L1012.3107344632768,190L1010.2881355932204,190L1008.2655367231639,190L1006.2429378531074,190L1004.2203389830509,190L1002.1977401129943,190L1000.1751412429378,190L998.1525423728814,190L996.1299435028249,190L994.1073446327683,190L992.0847457627118,190L990.0621468926553,190L988.039548022599,190L986.0169491525425,190L983.9943502824859,190L981.9717514124294,190L979.9491525423729,190L977.9265536723163,190L975.9039548022599,190L973.8813559322034,190L971.8587570621469,190L969.8361581920904,190L967.8135593220338,190L965.7909604519773,190L963.768361581921,190L961.7457627118645,190L959.723163841808,190L957.7005649717514,190L955.6779661016949,190L953.6553672316385,190L951.632768361582,190L949.6101694915254,190L947.5875706214689,190L945.5649717514124,190L943.5423728813558,190L941.5197740112994,190L939.497175141243,190L937.4745762711865,190L935.45197740113,190L933.4293785310734,190L931.4067796610169,190L929.3841807909605,190L927.361581920904,190L925.3389830508474,190L923.3163841807909,190L921.2937853107344,190L919.271186440678,190L917.2485875706215,190L915.225988700565,190L913.2033898305085,190L911.180790960452,190L909.1581920903955,190L907.135593220339,190L905.1129943502825,190L903.090395480226,190L901.0677966101695,190L899.0451977401129,190L897.0225988700564,190L895,190L892.9774011299435,190L890.954802259887,190L888.9322033898305,190L886.909604519774,190L884.8870056497176,190L882.8644067796611,190L880.8418079096045,190L878.819209039548,190L876.7966101694915,190L874.774011299435,190L872.7514124293785,190L870.728813559322,190L868.7062146892655,190L866.683615819209,190L864.6610169491526,190L862.638418079096,190L860.6158192090396,190L858.5932203389831,190L856.5706214689266,190L854.54802259887,190L852.5254237288135,190L850.5028248587571,190L848.4802259887006,190L846.457627118644,190L844.4350282485875,190L842.412429378531,190L840.3898305084746,190L838.3672316384182,190L836.3446327683616,190L834.3220338983051,190L832.2994350282486,190L830.276836158192,190L828.2542372881356,190L826.2316384180791,190L824.2090395480226,190L822.1864406779661,190L820.1638418079095,190L818.141242937853,190L816.1186440677967,190L814.0960451977402,190L812.0734463276837,190L810.0508474576271,190L808.0282485875706,190L806.0056497175141,190L803.9830508474577,190L801.9604519774011,190L799.9378531073446,190L797.9152542372881,190L795.8926553672316,190L793.8700564971753,190L791.8474576271187,190L789.8248587570622,190L787.8022598870057,190L785.7796610169491,190L783.7570621468926,190L781.7344632768362,190L779.7118644067797,190L777.6892655367232,190L775.6666666666666,190L773.6440677966101,190L771.6214689265536,190L769.5988700564972,190L767.5762711864407,190L765.5536723163842,190L763.5310734463277,190L761.5084745762712,190L759.4858757062148,190L757.4632768361582,190L755.4406779661017,190L753.4180790960452,190L751.3954802259886,190L749.3728813559321,190L747.3502824858757,190L745.3276836158192,190L743.3050847457628,190L741.2824858757062,190L739.2598870056497,190L737.2372881355932,190L735.2146892655368,190L733.1920903954802,190L731.1694915254237,190L729.1468926553672,190L727.1242937853107,190L725.1016949152543,190L723.0790960451977,190L721.0564971751412,190L719.0338983050848,190L717.0112994350283,190L714.9887005649717,190L712.9661016949153,190L710.9435028248588,190L708.9209039548023,190L706.8983050847457,190L704.8757062146892,190L702.8531073446327,190L700.8305084745763,190L698.8079096045198,190L696.7853107344632,190L694.7627118644068,190L692.7401129943503,190L690.7175141242939,190L688.6949152542373,190L686.6723163841808,190L684.6497175141243,190L682.6271186440678,190L680.6045197740112,190L678.5819209039548,190L676.5593220338983,190L674.5367231638418,190L672.5141242937852,190L670.4915254237288,190L668.4689265536723,190L666.4463276836159,190L664.4237288135594,190L662.4011299435028,190L660.3785310734463,190L658.3559322033898,190L656.3333333333334,190L654.3107344632768,190L652.2881355932203,190L650.2655367231638,190L648.2429378531073,190L646.2203389830509,190L644.1977401129944,190L642.1751412429379,190L640.1525423728814,190L638.1299435028249,190L636.1073446327683,190L634.0847457627119,190L632.0621468926554,190L630.0395480225989,190L628.0169491525423,190L625.9943502824858,190L623.9717514124293,190L621.949152542373,190L619.9265536723165,190L617.9039548022599,190L615.8813559322034,190L613.8587570621469,190L611.8361581920904,190L609.8135593220339,190L607.7909604519774,190L605.7683615819209,190L603.7457627118644,190L601.7231638418078,190L599.7005649717514,190L597.677966101695,190L595.6553672316385,190L593.632768361582,190L591.6101694915254,190L589.5875706214689,190L587.5649717514125,190L585.542372881356,190L583.5197740112994,190L581.4971751412429,190L579.4745762711864,190L577.4519774011299,190L575.4293785310734,190L573.406779661017,190L571.3841807909605,190L569.361581920904,190L567.3389830508474,190L565.316384180791,190L563.2937853107345,190L561.271186440678,190L559.2485875706215,190L557.2259887005649,190L555.2033898305084,190L553.180790960452,190L551.1581920903955,190L549.135593220339,190L547.1129943502825,190L545.090395480226,190L543.0677966101695,190L541.045197740113,190L539.0225988700565,190L537,190L534.9774011299435,190L532.9548022598871,190L530.9322033898305,190L528.909604519774,190L526.8870056497175,190L524.864406779661,190L522.8418079096045,190L520.819209039548,190L518.7966101694915,190L516.7740112994351,190L514.7514124293785,190L512.728813559322,190L510.70621468926555,190L508.683615819209,190L506.6610169491525,190L504.6384180790961,190L502.61581920903956,190L500.59322033898303,190L498.57062146892656,190L496.54802259887003,190L494.5254237288135,190L492.5028248587571,190L490.48022598870057,190L488.45762711864404,190L486.43502824858757,190L484.41242937853104,190L482.3898305084746,190L480.3672316384181,190L478.3446327683616,190L476.3220338983051,190L474.2994350282486,190L472.27683615819205,190L470.2542372881356,190L468.2316384180791,190L466.2090395480226,190L464.1864406779661,190L462.1638418079096,190L460.14124293785306,190L458.1186440677966,190L456.0960451977401,190L454.07344632768365,190L452.0508474576271,190L450.0282485875706,190L448.00564971751413,190L445.9830508474576,190L443.96045197740114,190L441.93785310734467,190L439.91525423728814,190L437.8926553672316,190L435.87005649717514,190L433.8474576271186,190L431.82485875706215,190L429.8022598870057,190L427.77966101694915,190L425.7570621468926,190L423.73446327683615,190L421.7118644067796,190L419.6892655367232,190L417.6666666666667,190L415.64406779661016,190L413.6214689265537,190L411.59887005649716,190L409.57627118644064,190L407.5536723163842,190L405.5310734463277,190L403.50847457627117,190L401.4858757062147,190L399.4632768361582,190L397.44067796610165,190L395.41807909604523,190L393.3954802259887,190L391.3728813559322,190L389.3502824858757,190L387.3276836158192,190L385.3050847457627,190L383.28248587570624,190L381.2598870056497,190L379.23728813559325,190L377.2146892655367,190L375.1920903954802,190L373.1694915254237,190L371.14689265536725,190L369.1242937853107,190L367.10169491525426,190L365.07909604519773,190L363.0564971751412,190L361.03389830508473,190L359.01129943502826,190L356.9887005649718,190L354.96610169491527,190L352.94350282485874,190L350.92090395480227,190L348.89830508474574,190L346.8757062146893,190L344.8531073446328,190L342.8305084745763,190L340.80790960451975,190L338.7853107344633,190L336.76271186440675,190L334.7401129943503,190L332.7175141242938,190L330.6949152542373,190L328.67231638418076,190L326.6497175141243,190L324.62711864406776,190L322.60451977401135,190L320.5819209039548,190L318.5593220338983,190L316.5367231638418,190L314.5141242937853,190L312.4915254237288,190L310.46892655367236,190L308.44632768361583,190L306.4237288135593,190L304.40112994350284,190L302.3785310734463,190L300.3559322033898,190L298.33333333333337,190L296.31073446327684,190L294.2881355932203,190L292.26553672316385,190L290.2429378531073,190L288.22033898305085,190L286.1977401129944,190L284.17514124293785,190L282.1525423728814,190L280.12994350282486,190L278.10734463276833,190L276.08474576271186,190L274.0621468926554,190L272.03954802259886,190L270.0169491525424,190L267.99435028248587,190L265.9717514124294,190L263.9491525423729,190L261.9265536723164,190L259.9039548022599,190L257.8813559322034,190L255.85875706214688,190L253.83615819209038,190L251.8135593220339,190L249.7909604519774,190L247.76836158192089,190L245.74576271186442,190L243.72316384180792,190L241.7005649717514,190L239.67796610169492,190L237.65536723163842,190L235.63276836158192,190L233.61016949152543,190L231.58757062146893,190L229.56497175141243,190L227.54237288135593,190L225.51977401129943,190L223.49717514124293,190L221.47457627118644,190L219.45197740112994,190L217.42937853107344,190L215.40677966101697,190L213.38418079096044,190L211.36158192090394,190L209.33898305084747,190L207.31638418079095,190L205.29378531073445,190L203.27118644067798,190L201.24858757062148,190L199.22598870056495,190L197.20338983050848,190L195.180790960452,190L193.15819209039546,190L191.135593220339,190L189.1129943502825,190L187.090395480226,190L185.0677966101695,190L183.045197740113,190L181.0225988700565,190L179,190L176.9774011299435,190L174.954802259887,190L172.9322033898305,190L170.909604519774,190L168.8870056497175,190L166.86440677966104,190L164.8418079096045,190L162.819209039548,190L160.79661016949154,190L158.77401129943502,190L156.75141242937852,190L154.72881355932205,190L152.70621468926555,190L150.68361581920902,190L148.66101694915255,190L146.63841807909606,190L144.61581920903953,190L142.59322033898306,190L140.57062146892656,190L138.54802259887003,190L136.52542372881356,190L134.50282485875707,190L132.48022598870057,190L130.45762711864407,190L128.43502824858757,190L126.41242937853107,190L124.38983050847457,190L122.36723163841808,190L120.34463276836159,190L118.32203389830508,190L116.2994350282486,190L114.2768361581921,190L112.25423728813558,190L110.2316384180791,190L108.2090395480226,190L106.1864406779661,190L104.1638418079096,190L102.1412429378531,190L100.11864406779661,190L98.09604519774011,190L96.07344632768363,190L94.05084745762711,190L92.02824858757063,190L90.00564971751413,190L87.98305084745762,190L85.96045197740114,190L83.93785310734462,190L81.91525423728814,190L79.89265536723164,190L77.87005649717513,190L75.84745762711864,190L73.82485875706215,190L71.80225988700565,190L69.77966101694915,190L67.75706214689266,190L65.73446327683615,190L63.71186440677966,190L61.68926553672317,190L59.666666666666664,190L57.644067796610166,190L55.621468926553675,190L53.59887005649718,190L51.57627118644068,190L49.55367231638419,190L47.53107344632768,190L45.50847457627118,190L43.485875706214685,190L41.463276836158194,190L39.440677966101696,190L37.4180790960452,190L35.3954802259887,190L33.37288135593221,190L31.350282485875706,190L29.32768361581921,190L27.305084745762713,190L25.282485875706215,190L23.25988700564972,190L21.23728813559322,190Z" fill="rgb(70, 130, 180)" fill-opacity="0.7"/></g><g><path d="M0,134.14107404393815L0,134.3651708706265L0,134.51779495524818L0,134.211802278275L0,134.3889951179821L0,134.13511798209927L0,134.43068755085434L0,133.66384458909684L0,134.57958909682668L0,134.33911310008136L0,134.9577990235964L0,135.0575630593979L0,134.61085842148088L0,134.1016151342555L0,133.67203417412532L0,133.8976200162734L0,133.98100488201788L0,133.71223759153784L0,133.72042717656632L0,133.70553702196906L0,133.5692921074044L0,133.5357892595606L0,133.37944263628967L0,133.52313262815298L0,133.53504475183072L0,133.38390968266884L0,133.58790480065093L0,133.689902359642L0,133.8239137510171L0,133.87305126118795L0,134.38080553295362L0,134.25200569568753L0,134.26391781936533L0,134.15521969080552L0,134.10235964198537L0,134.11650528885272L0,134.04205451586657L0,134.4664239218877L0,134.3793165174939L0,134.1500081366965L0,134.40760781122864L0,134.37112693246542L0,134.46046786004882L0,134.7694385679414L0,134.47163547599675L0,134.83644426362898L0,134.9347192839707L0,134.83048820179008L0,134.6674410089504L0,134.3651708706265L0,134.00482912937346L1.0112994350282485,134.26317331163548L3.0338983050847457,134.03684296175754L5.056497175141242,133.95866965012203L7.0790960451977405,134.42324247355575L9.101694915254237,134.51183889340928L11.124293785310735,134.44632221318147L13.146892655367232,134.59969080553296L15.169491525423728,133.9847274206672L17.192090395480225,134.35028071602926L19.214689265536723,134.50588283157037L21.23728813559322,133.84178193653378L23.25988700564972,134.96896663954433L25.282485875706215,134.92206265256306L27.305084745762713,134.25870626525628L29.32768361581921,133.9341008950366L31.350282485875706,134.41728641171684L33.37288135593221,134.34953620829944L35.3954802259887,134.9175956061839L37.4180790960452,135.60924328722538L39.440677966101696,135.59360862489828L41.463276836158194,134.92578519121238L43.485875706214685,134.74784784377542L45.50847457627118,133.89166395443453L47.53107344632768,133.9944060211554L49.55367231638419,134.3927176566314L51.57627118644068,134.18946704637915L53.59887005649718,133.99961757526447L55.621468926553675,134.48503661513428L57.644067796610166,134.47014646053702L59.666666666666664,134.22818144833198L61.68926553672317,134.98385679414156L63.71186440677966,134.67339707078926L65.73446327683615,134.23488201790076L67.75706214689266,134.41654190398697L69.77966101694915,134.65031733116354L71.80225988700565,134.56097640358016L73.82485875706215,134.75082587469487L75.84745762711864,135.5489381611066L77.87005649717513,135.78196908055327L79.89265536723164,135.64200162733928L81.91525423728814,135.72240846216437L83.93785310734462,135.7008177379984L85.96045197740114,137.2270585842148L87.98305084745762,136.11253051261187L90.00564971751413,136.53466639544345L92.02824858757063,136.45277054515867L94.05084745762711,137.29629780309193L96.07344632768363,137.6365378356387L98.09604519774011,137.0602888527258L100.11864406779661,137.1146379170057L102.1412429378531,136.98360455655003L104.1638418079096,138.1115337672905L106.1864406779661,137.99613506916188L108.2090395480226,137.6268592351505L110.2316384180791,137.9127502034174L112.25423728813558,138.3922131814483L114.2768361581921,138.21055329536208L116.2994350282486,137.9053051261188L118.32203389830508,138.1115337672905L120.34463276836159,138.11302278275022L122.36723163841808,138.28128152969893L124.38983050847457,138.66768104149716L126.41242937853107,138.67587062652564L128.43502824858757,139.06227013832384L130.45762711864407,139.0295117982099L132.48022598870057,139.89537428803905L134.50282485875707,140.06214401952806L136.52542372881356,140.2088120423108L138.54802259887003,140.8870585842148L140.57062146892656,140.86100081366965L142.59322033898306,140.401639544345L144.61581920903953,140.0331082180635L146.63841807909606,140.77463791700572L148.66101694915255,140.8207973962571L150.68361581920902,141.28462571196096L152.70621468926555,140.96820992676973L154.72881355932205,140.90194873881205L156.75141242937852,141.06499593165174L158.77401129943502,141.33674125305126L160.79661016949154,141.45735150528884L162.819209039548,141.20496338486575L164.8418079096045,141.04414971521564L166.86440677966104,141.60550854353133L168.8870056497175,142.0544467046379L170.909604519774,142.064869812856L172.9322033898305,141.31738405207486L174.954802259887,141.23251017087063L176.9774011299435,140.2773067534581L179,140.1589300244101L181.0225988700565,139.85517087062652L183.045197740113,140.12468266883647L185.0677966101695,140.024918633035L187.090395480226,139.9430227827502L189.1129943502825,140.48204637917004L191.135593220339,139.9370667209113L193.15819209039546,139.61320585842145L195.180790960452,139.0652481692433L197.20338983050848,139.0905614320586L199.22598870056495,138.35200976403578L201.24858757062148,138.37806753458094L203.27118644067798,138.3207404393816L205.29378531073445,138.45847436940602L207.31638418079095,137.71247762408464L209.33898305084747,137.82117575264442L211.36158192090394,137.68046379170056L213.38418079096044,138.243311635476L215.40677966101697,138.15843775427174L217.42937853107344,137.83606590724165L219.45197740112994,137.15409682668835L221.47457627118644,136.741639544345L223.49717514124293,136.43415785191215L225.51977401129943,136.65527664768106L227.54237288135593,136.53019934906428L229.56497175141243,135.87056550040683L231.58757062146893,135.86386493083808L233.61016949152543,136.2108055329536L235.63276836158192,135.98000813669648L237.65536723163842,135.26006916192026L239.67796610169492,135.1119121236778L241.7005649717514,135.6345565500407L243.72316384180792,135.33824247355574L245.74576271186442,134.47833604556553L247.76836158192089,134.52821806346626L249.7909604519774,134.17383238405208L251.8135593220339,134.56767697314888L253.83615819209038,134.56916598860863L255.85875706214688,134.5632099267697L257.8813559322034,133.97951586655816L259.9039548022599,133.0838730675346L261.9265536723164,133.54919039869813L263.9491525423729,133.75690805532952L265.9717514124294,133.90580960130188L267.99435028248587,133.20299430431245L270.0169491525424,133.3578519121237L272.03954802259886,134.03535394629782L274.0621468926554,132.9818755085435L276.08474576271186,133.58194873881206L278.10734463276833,133.21118388934093L280.12994350282486,133.3511513425549L282.1525423728814,132.640146460537L284.17514124293785,132.86349877949553L286.1977401129944,133.31541497152156L288.22033898305085,133.7479739625712L290.2429378531073,133.10323026851097L292.26553672316385,132.5143246541904L294.2881355932203,132.9163588283157L296.31073446327684,132.58728641171686L298.33333333333337,133.4040113913751L300.3559322033898,132.4562530512612L302.3785310734463,132.6520585842148L304.40112994350284,132.15770545158665L306.4237288135593,132.3505329536208L308.44632768361583,132.0929332790887L310.46892655367236,132.21354353132628L312.4915254237288,131.71323433685924L314.5141242937853,132.1026118795769L316.5367231638418,132.12271358828315L318.5593220338983,132.55229454841333L320.5819209039548,132.57909682668839L322.60451977401135,132.08995524816928L324.62711864406776,132.28054922701384L326.6497175141243,131.73556956875507L328.67231638418076,132.57165174938973L330.6949152542373,132.3587225386493L332.7175141242938,133.05483726607L334.7401129943503,133.62661920260376L336.76271186440675,133.03920260374286L338.7853107344633,133.90208706265256L340.80790960451975,133.37423108218064L342.8305084745763,133.14120016273392L344.8531073446328,133.6698006509357L346.8757062146893,133.60130593978846L348.89830508474574,134.0241863303499L350.92090395480227,134.77390561432057L352.94350282485874,134.56693246541903L354.96610169491527,133.94601301871438L356.9887005649718,134.63468266883646L359.01129943502826,134.01897477624087L361.03389830508473,134.17829943043122L363.0564971751412,134.21105777054515L365.07909604519773,134.14703010577705L367.10169491525426,133.6184296175753L369.1242937853107,133.87156224572823L371.14689265536725,133.88943043124493L373.1694915254237,134.1112937347437L375.1920903954802,134.15670870626525L377.2146892655367,134.18723352318958L379.23728813559325,134.5639544344996L381.2598870056497,134.48131407648495L383.28248587570624,134.11054922701385L385.3050847457627,134.21329129373476L387.3276836158192,134.24679414157853L389.3502824858757,134.12022782750205L391.3728813559322,134.45078925956065L393.3954802259887,134.26987388120423L395.41807909604523,134.0688567941416L397.44067796610165,133.51792107404393L399.4632768361582,133.25957689178196L401.4858757062147,133.45017087062652L403.50847457627117,133.5007973962571L405.5310734463277,133.0950406834825L407.5536723163842,133.75839707078924L409.57627118644064,133.74871847030104L411.59887005649716,133.60651749389748L413.6214689265537,133.74648494711147L415.64406779661016,133.8410374288039L417.6666666666667,133.47101708706268L419.6892655367232,133.6355532953621L421.7118644067796,133.37497558991046L423.73446327683615,133.93558991049633L425.7570621468926,133.79934499593165L427.77966101694915,133.32360455655004L429.8022598870057,133.81721318144835L431.82485875706215,133.94154597233523L433.8474576271186,136.13561025223757L435.87005649717514,137.9514646053702L437.8926553672316,136.82204637917005L439.91525423728814,137.0096623270952L441.93785310734467,136.790032546786L443.96045197740114,136.49222945484132L445.9830508474576,136.77960943856795L448.00564971751413,137.00445077298616L450.0282485875706,136.8853295362083L452.0508474576271,136.5220097640358L454.07344632768365,137.1801545972335L456.0960451977401,136.32248169243286L458.1186440677966,137.21589096826688L460.14124293785306,137.64472742066718L462.1638418079096,136.77067534580956L464.1864406779661,136.68431244914566L466.2090395480226,135.89438974776243L468.2316384180791,135.69039462978031L470.2542372881356,135.70900732302687L472.27683615819205,136.14975589910495L474.2994350282486,136.47138323840522L476.3220338983051,137.04390968266884L478.3446327683616,137.32980065093574L480.3672316384181,136.63443043124494L482.3898305084746,136.97839300244098L484.41242937853104,136.80417819365337L486.43502824858757,136.82204637917005L488.45762711864404,137.30225386493083L490.48022598870057,136.72302685109844L492.5028248587571,136.22420667209113L494.5254237288135,136.4952074857608L496.54802259887003,137.87552481692433L498.57062146892656,137.87031326281527L500.59322033898303,137.29183075671278L502.61581920903956,137.31714401952806L504.6384180790961,137.07815703824247L506.6610169491525,137.48093572009765L508.683615819209,136.00681041497154L510.70621468926555,135.58839707078926L512.728813559322,135.7023067534581L514.7514124293785,136.6604882017901L516.7740112994351,135.7916476810415L518.7966101694915,136.01053295362084L520.819209039548,135.81323840520747L522.8418079096045,136.14231082180632L524.864406779661,135.97107404393816L526.8870056497175,136.15943449959315L528.909604519774,136.38725386493084L530.9322033898305,136.58380390561433L532.9548022598871,135.89885679414158L534.9774011299435,136.07604963384867L537,136.20857200976405L539.0225988700565,135.76037835638732L541.045197740113,135.76707892595607L543.0677966101695,135.6457241659886L545.090395480226,134.88260374288038L547.1129943502825,135.72836452400324L549.135593220339,135.28687144019528L551.1581920903955,134.9250406834825L553.180790960452,134.89898291293736L555.2033898305084,134.91163954434498L557.2259887005649,135.2593246541904L559.2485875706215,135.57276240846213L561.271186440678,135.3605777054516L563.2937853107345,135.3002725793328L565.316384180791,134.85207892595608L567.3389830508474,135.66805939788446L569.361581920904,134.98013425549226L571.3841807909605,135.05830756712774L573.406779661017,134.37261594792514L575.4293785310734,134.78432872253862L577.4519774011299,134.610113913751L579.4745762711864,134.40760781122864L581.4971751412429,134.11873881204232L583.5197740112994,134.00929617575267L585.542372881356,134.08970301057772L587.5649717514125,134.15670870626525L589.5875706214689,133.97355980471932L591.6101694915254,133.79636696501223L593.632768361582,133.5357892595606L595.6553672316385,133.26478844589099L597.677966101695,133.52313262815298L599.7005649717514,133.4390032546786L601.7231638418078,133.15609031733115L603.7457627118644,132.59547599674534L605.7683615819209,132.62004475183076L607.7909604519774,132.36021155410901L609.8135593220339,132.3006509357201L611.8361581920904,131.59634662327093L613.8587570621469,131.70057770545156L615.8813559322034,131.74971521562242L617.9039548022599,131.74003661513424L619.9265536723165,131.79066314076485L621.949152542373,131.74748169243287L623.9717514124293,131.3834174125305L625.9943502824858,131.33055736371034L628.0169491525423,131.28514239218876L630.0395480225989,132.61855573637104L632.0621468926554,132.69226200162734L634.0847457627119,131.6186818551668L636.1073446327683,131.46382424735557L638.1299435028249,131.36629373474372L640.1525423728814,132.258213995118L642.1751412429379,131.4772253864931L644.1977401129944,131.47201383238405L646.2203389830509,132.1331366965012L648.2429378531073,131.60304719283968L650.2655367231638,131.59187957689178L652.2881355932203,131.56284377542718L654.3107344632768,131.74152563059394L656.3333333333334,132.1197355573637L658.3559322033898,132.69226200162734L660.3785310734463,131.3878844589097L662.4011299435028,131.40426362896665L664.4237288135594,131.33800244100894L666.4463276836159,131.01339707078924L668.4689265536723,130.88534174125306L670.4915254237288,131.55986574450773L672.5141242937852,131.5956021155411L674.5367231638418,131.18016680227825L676.5593220338983,130.62923108218064L678.5819209039548,131.62984947111474L680.6045197740112,131.34544751830757L682.6271186440678,130.5227664768104L684.6497175141243,130.07755085435312L686.6723163841808,130.42895850284782L688.6949152542373,130.6374206672091L690.7175141242939,130.51606590724165L692.7401129943503,130.04628152969894L694.7627118644068,131.38490642799022L696.7853107344632,130.21900732302686L698.8079096045198,131.0826362896664L700.8305084745763,130.8064239218877L702.8531073446327,130.24655410903173L704.8757062146892,130.41927990235965L706.8983050847457,130.78036615134255L708.9209039548023,130.14827908869L710.9435028248588,130.2279414157852L712.9661016949153,129.6978519121237L714.9887005649717,129.85196501220503L717.0112994350283,129.77081366965012L719.0338983050848,129.86313262815295L721.0564971751412,130.00161106590724L723.0790960451977,130.31802685109844L725.1016949152543,130.37163140764852L727.1242937853107,130.78483319772172L729.1468926553672,130.79227827502032L731.1694915254237,130.07531733116355L733.1920903954802,130.1229658258747L735.2146892655368,130.9173555736371L737.2372881355932,130.7639869812856L739.2598870056497,130.60838486574454L741.2824858757062,131.31045565500406L743.3050847457628,131.05285598047192L745.3276836158192,131.17644426362898L747.3502824858757,131.42362082994305L749.3728813559321,131.17867778681853L751.3954802259886,131.3856509357201L753.4180790960452,131.95296582587468L755.4406779661017,131.6908991049634L757.4632768361582,132.11750203417412L759.4858757062148,132.311818551668L761.5084745762712,131.96934499593166L763.5310734463277,132.16440602115543L765.5536723163842,132.22247762408463L767.5762711864407,132.46965419039873L769.5988700564972,133.011655817738L771.6214689265536,132.80691619202602L773.6440677966101,132.9721969080553L775.6666666666666,132.9528397070789L777.6892655367232,133.22086248982913L779.7118644067797,133.59162733930026L781.7344632768362,133.15832384052075L783.7570621468926,132.83669650122047L785.7796610169491,132.53963791700568L787.8022598870057,132.68034987794957L789.8248587570622,132.311818551668L791.8474576271187,132.0929332790887L793.8700564971753,132.78532546786008L795.8926553672316,132.75256712774612L797.9152542372881,132.38105777054517L799.9378531073446,133.03026851098454L801.9604519774011,132.70417412530512L803.9830508474577,133.27148901545974L806.0056497175141,133.2662774613507L808.0282485875706,133.68394629780312L810.0508474576271,133.53355573637103L812.0734463276837,133.6080065093572L814.0960451977402,133.59981692432874L816.1186440677967,134.20510170870625L818.141242937853,135.01438161106591L820.1638418079095,134.9972579332791L822.1864406779661,134.41281936533767L824.2090395480226,134.35995931651746L826.2316384180791,134.4046297803092L828.2542372881356,133.6779902359642L830.276836158192,134.12990642799022L832.2994350282486,134.4470667209113L834.3220338983051,133.011655817738L836.3446327683616,133.81572416598863L838.3672316384182,134.29295362082993L840.3898305084746,133.60279495524819L842.412429378531,133.21118388934093L844.4350282485875,132.70045158665582L846.457627118644,132.70566314076484L848.4802259887006,133.42485760781122L850.5028248587571,132.2678925956062L852.5254237288135,132.22545565500405L854.54802259887,133.46878356387307L856.5706214689266,134.42696501220505L858.5932203389831,134.53938567941415L860.6158192090396,133.29159072416599L862.638418079096,133.00793327908872L864.6610169491526,133.3072253864931L866.683615819209,133.89613100081368L868.7062146892655,133.98100488201788L870.728813559322,134.19021155410903L872.7514124293785,133.44049227013832L874.774011299435,134.7270016273393L876.7966101694915,133.84029292107405L878.819209039548,135.11042310821807L880.8418079096045,135.34792107404394L882.8644067796611,134.46791293734742L884.8870056497176,133.81721318144832L886.909604519774,134.2415825874695L888.9322033898305,134.2311594792514L890.954802259887,135.0285272579333L892.9774011299435,135.30325061025223L895,135.45885272579335L897.0225988700564,136.2599430431245L899.0451977401129,135.63902359641986L901.0677966101695,136.26515459723353L903.090395480226,135.91746948738813L905.1129943502825,136.32471521562246L907.135593220339,136.3314157851912L909.1581920903955,136.03956875508544L911.180790960452,136.33439381611066L913.2033898305085,136.91138730675345L915.225988700565,137.03944263628966L917.2485875706215,136.72674938974777L919.271186440678,136.86076078112285L921.2937853107344,136.75429617575261L923.3163841807909,136.7609967453214L925.3389830508474,137.29704231082184L927.361581920904,137.96039869812853L929.3841807909605,137.91051668022783L931.4067796610169,137.81224165988607L933.4293785310734,137.54421887713588L935.45197740113,138.340097640358L937.4745762711865,138.41603742880392L939.497175141243,138.03857200976407L941.5197740112994,138.53366965012205L943.5423728813558,138.68703824247356L945.5649717514124,138.808393002441L947.5875706214689,138.47559804719288L949.6101694915254,138.28277054515866L951.632768361582,137.5516639544345L953.6553672316385,137.8040520748576L955.6779661016949,137.74374694873882L957.7005649717514,137.9514646053702L959.723163841808,138.41305939788447L961.7457627118645,138.63641171684296L963.768361581921,138.59918633034985L965.7909604519773,138.75478844589097L967.8135593220338,138.57685109845403L969.8361581920904,138.2939381611066L971.8587570621469,138.27681448331978L973.8813559322034,137.83234336859238L975.9039548022599,137.83978844589097L977.9265536723163,137.47125711960945L979.9491525423729,137.62983726606996L981.9717514124294,137.6879088689992L983.9943502824859,137.38861676159482L986.0169491525425,137.3841497152156L988.039548022599,137.15484133441822L990.0621468926553,137.10049227013835L992.0847457627118,137.09081366965015L994.1073446327683,136.96871440195278L996.1299435028249,136.91510984540278L998.1525423728814,137.56432058584213L1000.1751412429378,137.08858014646054L1002.1977401129943,137.34990235964196L1004.2203389830509,137.0193409275834L1006.2429378531074,136.5570016273393L1008.2655367231639,136.628474369406L1010.2881355932204,136.62996338486573L1012.3107344632768,136.50339707078928L1014.3333333333333,135.7879251423922L1016.3559322033898,135.7045402766477L1018.3785310734463,136.01053295362084L1020.4011299435028,136.07679414157852L1022.4237288135594,135.6621033360456L1024.446327683616,135.52660292921075L1026.4689265536722,136.0328681855167L1028.4915254237287,136.11550854353135L1030.5141242937852,136.01425549227014L1032.5367231638418,136.46617168429617L1034.5593220338983,136.37980878763221L1036.5819209039548,136.2011269324654L1038.6045197740114,135.60030919446703L1040.6271186440679,135.69188364524004L1042.6497175141244,135.73432058584217L1044.672316384181,135.64200162733928L1046.6949152542372,135.65019121236776L1048.7175141242938,135.4811879576892L1050.7401129943503,135.8690764849471L1052.7627118644068,135.8504637917006L1054.7853107344633,136.19442636289665L1056.8079096045199,136.23314076484948L1058.8305084745762,136.58752644426363L1060.8531073446327,136.7312164361269L1062.8757062146892,136.76546379170054L1064.8983050847457,137.63207078925956L1066.9209039548023,137.51443856794143L1068.9435028248588,137.67897477624084L1070.9661016949153,137.69014239218876L1072.9887005649719,137.79884052074857L1074,138.0489951179821L1074,138.07877542717657L1074,137.6663181448332L1074,137.55985353946298L1074,137.95369812855978L1074,137.49880390561432L1074,137.4526444263629L1074,137.3960618388934L1074,137.32980065093574L1074,137.18685516680227L1074,136.93148901545973L1074,137.0543327908869L1074,137.14292921074045L1074,137.17196501220502L1074,137.37596013018714L1074,137.69163140764852L1074,137.53900732302685L1074,137.31118795768919L1074,137.3461798209927L1074,137.58963384865743L1074,137.2292921074044L1074,137.58516680227828L1074,137.51741659886088L1074,138.0311269324654L1074,138.404869812856L1074,138.4004027664768L1074,137.74374694873882L1074,137.05135475996747L1074,137.08709113100082L1074,137.18536615134255L1074,136.9530797396257L1074,137.3432017900732L1074,136.89500813669648L1074,136.66272172497963L1074,136.64336452400326L1074,136.89500813669648L1074,136.6858014646054L1074,136.7624857607811L1074,136.71185923515054L1074,135.945016273393L1074,135.82366151342555L1074,136.12816517493897L1074,136.06339300244105L1074,135.84525223759155L1074,136.29940195280716L1074,135.9025793327909L1074,135.7372986167616L1074,136.84587062652562L1074,135.95395036615133L1074,135.75218877135885L1074,135.659869812856L1074,135.30101708706266L1074,135.55712774613508L1074,136.03063466232712L1074,135.11042310821807L1074,135.44247355573637L1074,135.01735964198537L1074,134.6361716842962L1074,134.5594873881204L1074,134.80815296989422L1074,134.42547599674532L1074,134.92652969894223L1074,136.0015988608625L1074,134.76720504475185L1074,135.2072091131001L1074,133.97207078925956L1074,133.64150935720096L1074,134.52151749389748L1074,133.96090317331164L1074,133.83880390561433L1074,134.10310414971522L1074,134.22892595606183L1074,133.80530105777052L1074,134.0063181448332L1074,134.01748576078114L1074,134.15521969080552L1074,133.4955858421481L1074,133.15013425549228L1074,132.45327502034178L1074,131.72291293734744L1074,131.9373311635476L1074,133.19257119609438L1074,132.48082180634665L1074,132.9587957689178L1074,132.30288445890966L1074,132.12345809601302L1074,132.6193002441009L1074,132.473376729048L1074,132.48082180634665L1074,132.7883034987795L1074,132.49943449959315L1074,133.1590683482506L1074,133.13077705451587L1074,132.6230227827502L1074,133.1263100081367L1074,133.92516680227828L1074,133.43602522375915L1074,133.40326688364524L1074,133.20448331977215L1074,190L1074,190L1074,190L1074,190L1074,190L1074,190L1074,190L1074,190L1074,190L1074,190L1074,190L1074,190L1074,190L1074,190L1074,190L1074,190L1074,190L1074,190L1074,190L1074,190L1074,190L1074,190L1074,190L1074,190L1074,190L1074,190L1074,190L1074,190L1074,190L1074,190L1074,190L1074,190L1074,190L1074,190L1074,190L1074,190L1074,190L1074,190L1074,190L1074,190L1074,190L1074,190L1074,190L1074,190L1074,190L1074,190L1074,190L1074,190L1074,190L1074,190L1074,190L1074,190L1074,190L1074,190L1074,190L1074,190L1074,190L1074,190L1074,190L1074,190L1074,190L1074,190L1074,190L1074,190L1074,190L1074,190L1074,190L1074,190L1074,190L1074,190L1074,190L1074,190L1074,190L1074,190L1074,190L1074,190L1074,190L1074,190L1074,190L1074,190L1074,190L1074,190L1074,190L1074,190L1074,190L1074,190L1074,190L1074,190L1074,190L1074,190L1074,190L1074,190L1074,190L1074,190L1074,190L1074,190L1074,190L1074,190L1074,190L1072.9887005649719,190L1070.9661016949153,190L1068.9435028248588,190L1066.9209039548023,190L1064.8983050847457,190L1062.8757062146892,190L1060.8531073446327,190L1058.8305084745762,190L1056.8079096045199,190L1054.7853107344633,190L1052.7627118644068,190L1050.7401129943503,190L1048.7175141242938,190L1046.6949152542372,190L1044.672316384181,190L1042.6497175141244,190L1040.6271186440679,190L1038.6045197740114,190L1036.5819209039548,190L1034.5593220338983,190L1032.5367231638418,190L1030.5141242937852,190L1028.4915254237287,190L1026.4689265536722,190L1024.446327683616,190L1022.4237288135594,190L1020.4011299435028,190L1018.3785310734463,190L1016.3559322033898,190L1014.3333333333333,190L1012.3107344632768,190L1010.2881355932204,190L1008.2655367231639,190L1006.2429378531074,190L1004.2203389830509,190L1002.1977401129943,190L1000.1751412429378,190L998.1525423728814,190L996.1299435028249,190L994.1073446327683,190L992.0847457627118,190L990.0621468926553,190L988.039548022599,190L986.0169491525425,190L983.9943502824859,190L981.9717514124294,190L979.9491525423729,190L977.9265536723163,190L975.9039548022599,190L973.8813559322034,190L971.8587570621469,190L969.8361581920904,190L967.8135593220338,190L965.7909604519773,190L963.768361581921,190L961.7457627118645,190L959.723163841808,190L957.7005649717514,190L955.6779661016949,190L953.6553672316385,190L951.632768361582,190L949.6101694915254,190L947.5875706214689,190L945.5649717514124,190L943.5423728813558,190L941.5197740112994,190L939.497175141243,190L937.4745762711865,190L935.45197740113,190L933.4293785310734,190L931.4067796610169,190L929.3841807909605,190L927.361581920904,190L925.3389830508474,190L923.3163841807909,190L921.2937853107344,190L919.271186440678,190L917.2485875706215,190L915.225988700565,190L913.2033898305085,190L911.180790960452,190L909.1581920903955,190L907.135593220339,190L905.1129943502825,190L903.090395480226,190L901.0677966101695,190L899.0451977401129,190L897.0225988700564,190L895,190L892.9774011299435,190L890.954802259887,190L888.9322033898305,190L886.909604519774,190L884.8870056497176,190L882.8644067796611,190L880.8418079096045,190L878.819209039548,190L876.7966101694915,190L874.774011299435,190L872.7514124293785,190L870.728813559322,190L868.7062146892655,190L866.683615819209,190L864.6610169491526,190L862.638418079096,190L860.6158192090396,190L858.5932203389831,190L856.5706214689266,190L854.54802259887,190L852.5254237288135,190L850.5028248587571,190L848.4802259887006,190L846.457627118644,190L844.4350282485875,190L842.412429378531,190L840.3898305084746,190L838.3672316384182,190L836.3446327683616,190L834.3220338983051,190L832.2994350282486,190L830.276836158192,190L828.2542372881356,190L826.2316384180791,190L824.2090395480226,190L822.1864406779661,190L820.1638418079095,190L818.141242937853,190L816.1186440677967,190L814.0960451977402,190L812.0734463276837,190L810.0508474576271,190L808.0282485875706,190L806.0056497175141,190L803.9830508474577,190L801.9604519774011,190L799.9378531073446,190L797.9152542372881,190L795.8926553672316,190L793.8700564971753,190L791.8474576271187,190L789.8248587570622,190L787.8022598870057,190L785.7796610169491,190L783.7570621468926,190L781.7344632768362,190L779.7118644067797,190L777.6892655367232,190L775.6666666666666,190L773.6440677966101,190L771.6214689265536,190L769.5988700564972,190L767.5762711864407,190L765.5536723163842,190L763.5310734463277,190L761.5084745762712,190L759.4858757062148,190L757.4632768361582,190L755.4406779661017,190L753.4180790960452,190L751.3954802259886,190L749.3728813559321,190L747.3502824858757,190L745.3276836158192,190L743.3050847457628,190L741.2824858757062,190L739.2598870056497,190L737.2372881355932,190L735.2146892655368,190L733.1920903954802,190L731.1694915254237,190L729.1468926553672,190L727.1242937853107,190L725.1016949152543,190L723.0790960451977,190L721.0564971751412,190L719.0338983050848,190L717.0112994350283,190L714.9887005649717,190L712.9661016949153,190L710.9435028248588,190L708.9209039548023,190L706.8983050847457,190L704.8757062146892,190L702.8531073446327,190L700.8305084745763,190L698.8079096045198,190L696.7853107344632,190L694.7627118644068,190L692.7401129943503,190L690.7175141242939,190L688.6949152542373,190L686.6723163841808,190L684.6497175141243,190L682.6271186440678,190L680.6045197740112,190L678.5819209039548,190L676.5593220338983,190L674.5367231638418,190L672.5141242937852,190L670.4915254237288,190L668.4689265536723,190L666.4463276836159,190L664.4237288135594,190L662.4011299435028,190L660.3785310734463,190L658.3559322033898,190L656.3333333333334,190L654.3107344632768,190L652.2881355932203,190L650.2655367231638,190L648.2429378531073,190L646.2203389830509,190L644.1977401129944,190L642.1751412429379,190L640.1525423728814,190L638.1299435028249,190L636.1073446327683,190L634.0847457627119,190L632.0621468926554,190L630.0395480225989,190L628.0169491525423,190L625.9943502824858,190L623.9717514124293,190L621.949152542373,190L619.9265536723165,190L617.9039548022599,190L615.8813559322034,190L613.8587570621469,190L611.8361581920904,190L609.8135593220339,190L607.7909604519774,190L605.7683615819209,190L603.7457627118644,190L601.7231638418078,190L599.7005649717514,190L597.677966101695,190L595.6553672316385,190L593.632768361582,190L591.6101694915254,190L589.5875706214689,190L587.5649717514125,190L585.542372881356,190L583.5197740112994,190L581.4971751412429,190L579.4745762711864,190L577.4519774011299,190L575.4293785310734,190L573.406779661017,190L571.3841807909605,190L569.361581920904,190L567.3389830508474,190L565.316384180791,190L563.2937853107345,190L561.271186440678,190L559.2485875706215,190L557.2259887005649,190L555.2033898305084,190L553.180790960452,190L551.1581920903955,190L549.135593220339,190L547.1129943502825,190L545.090395480226,190L543.0677966101695,190L541.045197740113,190L539.0225988700565,190L537,190L534.9774011299435,190L532.9548022598871,190L530.9322033898305,190L528.909604519774,190L526.8870056497175,190L524.864406779661,190L522.8418079096045,190L520.819209039548,190L518.7966101694915,190L516.7740112994351,190L514.7514124293785,190L512.728813559322,190L510.70621468926555,190L508.683615819209,190L506.6610169491525,190L504.6384180790961,190L502.61581920903956,190L500.59322033898303,190L498.57062146892656,190L496.54802259887003,190L494.5254237288135,190L492.5028248587571,190L490.48022598870057,190L488.45762711864404,190L486.43502824858757,190L484.41242937853104,190L482.3898305084746,190L480.3672316384181,190L478.3446327683616,190L476.3220338983051,190L474.2994350282486,190L472.27683615819205,190L470.2542372881356,190L468.2316384180791,190L466.2090395480226,190L464.1864406779661,190L462.1638418079096,190L460.14124293785306,190L458.1186440677966,190L456.0960451977401,190L454.07344632768365,190L452.0508474576271,190L450.0282485875706,190L448.00564971751413,190L445.9830508474576,190L443.96045197740114,190L441.93785310734467,190L439.91525423728814,190L437.8926553672316,190L435.87005649717514,190L433.8474576271186,190L431.82485875706215,190L429.8022598870057,190L427.77966101694915,190L425.7570621468926,190L423.73446327683615,190L421.7118644067796,190L419.6892655367232,190L417.6666666666667,190L415.64406779661016,190L413.6214689265537,190L411.59887005649716,190L409.57627118644064,190L407.5536723163842,190L405.5310734463277,190L403.50847457627117,190L401.4858757062147,190L399.4632768361582,190L397.44067796610165,190L395.41807909604523,190L393.3954802259887,190L391.3728813559322,190L389.3502824858757,190L387.3276836158192,190L385.3050847457627,190L383.28248587570624,190L381.2598870056497,190L379.23728813559325,190L377.2146892655367,190L375.1920903954802,190L373.1694915254237,190L371.14689265536725,190L369.1242937853107,190L367.10169491525426,190L365.07909604519773,190L363.0564971751412,190L361.03389830508473,190L359.01129943502826,190L356.9887005649718,190L354.96610169491527,190L352.94350282485874,190L350.92090395480227,190L348.89830508474574,190L346.8757062146893,190L344.8531073446328,190L342.8305084745763,190L340.80790960451975,190L338.7853107344633,190L336.76271186440675,190L334.7401129943503,190L332.7175141242938,190L330.6949152542373,190L328.67231638418076,190L326.6497175141243,190L324.62711864406776,190L322.60451977401135,190L320.5819209039548,190L318.5593220338983,190L316.5367231638418,190L314.5141242937853,190L312.4915254237288,190L310.46892655367236,190L308.44632768361583,190L306.4237288135593,190L304.40112994350284,190L302.3785310734463,190L300.3559322033898,190L298.33333333333337,190L296.31073446327684,190L294.2881355932203,190L292.26553672316385,190L290.2429378531073,190L288.22033898305085,190L286.1977401129944,190L284.17514124293785,190L282.1525423728814,190L280.12994350282486,190L278.10734463276833,190L276.08474576271186,190L274.0621468926554,190L272.03954802259886,190L270.0169491525424,190L267.99435028248587,190L265.9717514124294,190L263.9491525423729,190L261.9265536723164,190L259.9039548022599,190L257.8813559322034,190L255.85875706214688,190L253.83615819209038,190L251.8135593220339,190L249.7909604519774,190L247.76836158192089,190L245.74576271186442,190L243.72316384180792,190L241.7005649717514,190L239.67796610169492,190L237.65536723163842,190L235.63276836158192,190L233.61016949152543,190L231.58757062146893,190L229.56497175141243,190L227.54237288135593,190L225.51977401129943,190L223.49717514124293,190L221.47457627118644,190L219.45197740112994,190L217.42937853107344,190L215.40677966101697,190L213.38418079096044,190L211.36158192090394,190L209.33898305084747,190L207.31638418079095,190L205.29378531073445,190L203.27118644067798,190L201.24858757062148,190L199.22598870056495,190L197.20338983050848,190L195.180790960452,190L193.15819209039546,190L191.135593220339,190L189.1129943502825,190L187.090395480226,190L185.0677966101695,190L183.045197740113,190L181.0225988700565,190L179,190L176.9774011299435,190L174.954802259887,190L172.9322033898305,190L170.909604519774,190L168.8870056497175,190L166.86440677966104,190L164.8418079096045,190L162.819209039548,190L160.79661016949154,190L158.77401129943502,190L156.75141242937852,190L154.72881355932205,190L152.70621468926555,190L150.68361581920902,190L148.66101694915255,190L146.63841807909606,190L144.61581920903953,190L142.59322033898306,190L140.57062146892656,190L138.54802259887003,190L136.52542372881356,190L134.50282485875707,190L132.48022598870057,190L130.45762711864407,190L128.43502824858757,190L126.41242937853107,190L124.38983050847457,190L122.36723163841808,190L120.34463276836159,190L118.32203389830508,190L116.2994350282486,190L114.2768361581921,190L112.25423728813558,190L110.2316384180791,190L108.2090395480226,190L106.1864406779661,190L104.1638418079096,190L102.1412429378531,190L100.11864406779661,190L98.09604519774011,190L96.07344632768363,190L94.05084745762711,190L92.02824858757063,190L90.00564971751413,190L87.98305084745762,190L85.96045197740114,190L83.93785310734462,190L81.91525423728814,190L79.89265536723164,190L77.87005649717513,190L75.84745762711864,190L73.82485875706215,190L71.80225988700565,190L69.77966101694915,190L67.75706214689266,190L65.73446327683615,190L63.71186440677966,190L61.68926553672317,190L59.666666666666664,190L57.644067796610166,190L55.621468926553675,190L53.59887005649718,190L51.57627118644068,190L49.55367231638419,190L47.53107344632768,190L45.50847457627118,190L43.485875706214685,190L41.463276836158194,190L39.440677966101696,190L37.4180790960452,190L35.3954802259887,190L33.37288135593221,190L31.350282485875706,190L29.32768361581921,190L27.305084745762713,190L25.282485875706215,190L23.25988700564972,190L21.23728813559322,190L19.214689265536723,190L17.192090395480225,190L15.169491525423728,190L13.146892655367232,190L11.124293785310735,190L9.101694915254237,190L7.0790960451977405,190L5.056497175141242,190L3.0338983050847457,190L1.0112994350282485,190L0,190L0,190L0,190L0,190L0,190L0,190L0,190L0,190L0,190L0,190L0,190L0,190L0,190L0,190L0,190L0,190L0,190L0,190L0,190L0,190L0,190L0,190L0,190L0,190L0,190L0,190L0,190L0,190L0,190L0,190L0,190L0,190L0,190L0,190L0,190L0,190L0,190L0,190L0,190L0,190L0,190L0,190L0,190L0,190L0,190L0,190L0,190L0,190L0,190L0,190L0,190Z" fill="rgb(115, 171, 61)" fill-opacity="0.5"/></g><line x1="0" y1="190" x2="1074" y2="190" stroke="#333"/></g></svg>